HIERARCHY
ROOT Pelvis
{
	OFFSET 0.000000 0.000000 0.000000
	CHANNELS 6 Xposition Yposition Zposition Xrotation Yrotation Zrotation
	JOINT LeftUpLeg_virtual
	{
		OFFSET 0.000000 0.000000 0.000000
		CHANNELS 3 Xrotation Yrotation Zrotation
		JOINT LeftUpLeg
		{
			OFFSET 18.735201 -5.666702 -4.541200
			CHANNELS 3 Xrotation Yrotation Zrotation
			JOINT LeftLeg
			{
				OFFSET -0.021200 -31.938179 0.493100
				CHANNELS 3 Xrotation Yrotation Zrotation
				JOINT LeftFoot
				{
					OFFSET 0.021200 -31.938179 -4.336299
					CHANNELS 3 Xrotation Yrotation Zrotation
					JOINT LeftToeBase
					{
						OFFSET 0.943001 -26.722000 15.023500
						CHANNELS 3 Xrotation Yrotation Zrotation
						End Site
						{
							OFFSET 0 0 0
						}
					}
				}
			}
		}
	}
	JOINT RightUpLeg_virtual
	{
		OFFSET 0.000000 0.000000 0.000000
		CHANNELS 3 Xrotation Yrotation Zrotation
		JOINT RightUpLeg
		{
			OFFSET -18.735201 -5.666702 -4.541200
			CHANNELS 3 Xrotation Yrotation Zrotation
			JOINT RightLeg
			{
				OFFSET 0.018946 -31.938133 0.493100
				CHANNELS 3 Xrotation Yrotation Zrotation
				JOINT RightFoot
				{
					OFFSET -0.018946 -31.938126 -4.336299
					CHANNELS 3 Xrotation Yrotation Zrotation
					JOINT RightToeBase
					{
						OFFSET -0.943001 -26.722004 15.023500
						CHANNELS 3 Xrotation Yrotation Zrotation
						End Site
						{
							OFFSET 0 0 0
						}
					}
				}
			}
		}
	}
	JOINT Hips_virtual
	{
		OFFSET 0.000000 0.000000 0.000000
		CHANNELS 3 Xrotation Yrotation Zrotation
		JOINT Hips
		{
			OFFSET -0.000000 -0.000000 -0.000000
			CHANNELS 3 Xrotation Yrotation Zrotation
			JOINT Spine
			{
				OFFSET 0.000000 10.199997 -0.299500
				CHANNELS 3 Xrotation Yrotation Zrotation
				JOINT Spine1
				{
					OFFSET 0.000000 11.900002 -1.516600
					CHANNELS 3 Xrotation Yrotation Zrotation
					JOINT Spine2
					{
						OFFSET 0.000000 13.600006 -2.842500
						CHANNELS 3 Xrotation Yrotation Zrotation
						JOINT Neck_virtual
						{
							OFFSET 0.000000 0.000000 0.000000
							CHANNELS 3 Xrotation Yrotation Zrotation
							JOINT Neck
							{
								OFFSET 0.000000 9.624100 -2.890100
								CHANNELS 3 Xrotation Yrotation Zrotation
								JOINT Head
								{
									OFFSET 0.000000 14.068802 -1.351900
									CHANNELS 3 Xrotation Yrotation Zrotation
									End Site
									{
										OFFSET 0 0 0
									}
								}
							}
						}
						JOINT LeftShoulder_virtual
						{
							OFFSET 0.000000 0.000000 0.000000
							CHANNELS 3 Xrotation Yrotation Zrotation
							JOINT LeftShoulder
							{
								OFFSET 15.263000 10.923401 -0.547700
								CHANNELS 3 Xrotation Yrotation Zrotation
								JOINT LeftArm
								{
									OFFSET 25.438599 -2.830597 -13.032500
									CHANNELS 3 Xrotation Yrotation Zrotation
									JOINT LeftForeArm
									{
										OFFSET 29.960503 0.000000 0.000000
										CHANNELS 3 Xrotation Yrotation Zrotation
										JOINT LeftHand
										{
											OFFSET 27.849251 0.000000 0.000000
											CHANNELS 3 Xrotation Yrotation Zrotation
											End Site
											{
												OFFSET 0 0 0
											}
										}
									}
								}
							}
						}
						JOINT RightShoulder_virtual
						{
							OFFSET 0.000000 0.000000 0.000000
							CHANNELS 3 Xrotation Yrotation Zrotation
							JOINT RightShoulder
							{
								OFFSET -15.263000 10.923401 -0.547700
								CHANNELS 3 Xrotation Yrotation Zrotation
								JOINT RightArm
								{
									OFFSET -25.438599 -2.830597 -13.032500
									CHANNELS 3 Xrotation Yrotation Zrotation
									JOINT RightForeArm
									{
										OFFSET -29.960503 0.000000 0.000000
										CHANNELS 3 Xrotation Yrotation Zrotation
										JOINT RightHand
										{
											OFFSET -27.849251 0.000000 0.000000
											CHANNELS 3 Xrotation Yrotation Zrotation
											End Site
											{
												OFFSET 0 0 0
											}
										}
									}
								}
							}
						}
					}
				}
			}
		}
	}
}
MOTION
Frames: 11
Frame Time: 0.03333333
6.607639 70.185478 57.716888 0.000000 0.000000 0.000000 -15.884851 -39.286480 -8.955772 -54.470728 -12.810407 28.062565 69.383602 -10.020467 8.928289 -2.805344 -14.547210 -29.226530 0.000000 0.000000 0.000000 -15.422717 -37.978666 -8.918094 -29.271377 1.876616 -46.893811 82.133100 10.327251 -8.402190 -0.355418 1.320301 13.107521 0.000000 0.000000 0.000000 -15.517903 -37.108623 -8.525529 -1.415664 -0.741429 -1.870966 27.386791 3.461505 -10.142545 -0.018795 0.682878 0.641247 0.000000 0.000000 0.000000 -1.128580 0.317121 0.384753 3.764420 2.702007 -0.810999 0.000000 0.000000 0.000000 -0.364750 0.368928 0.385328 2.215698 -0.038407 -8.037196 -59.777822 1.309955 -43.464192 -176.546019 -69.109083 -176.541266 0.000000 0.000000 0.000000 -1.071863 0.463778 0.550032 1.433366 12.463476 -4.113621 -44.814340 24.986113 83.387737 -175.812539 64.356720 176.666053 0.000000 0.000000 0.000000 
5.823313 70.965294 54.954727 0.000000 0.000000 0.000000 -15.977011 -40.286751 -8.202845 -49.820718 -10.966891 29.452988 60.975435 -10.395421 8.238783 0.217501 -13.642401 -31.932640 0.000000 0.000000 0.000000 -15.874606 -38.912127 -8.469973 -26.197626 -0.777498 -46.258074 81.920886 10.886467 -7.720456 -13.080450 -1.719951 15.580148 0.000000 0.000000 0.000000 -16.085135 -37.901430 -7.768370 -1.273834 -1.389933 -1.638785 25.114191 4.833491 -8.684586 0.239046 1.069077 0.015328 0.000000 0.000000 0.000000 -0.554899 0.663927 -0.221722 3.878736 2.798725 -1.067035 0.000000 0.000000 0.000000 -0.060929 0.779048 -0.203044 2.089093 0.685467 -8.320913 -58.349015 2.858329 -43.934352 -176.272798 -69.814581 -176.461748 0.000000 0.000000 0.000000 -0.706465 0.823989 -0.178052 1.193273 13.464472 -3.850843 -46.450020 24.990906 83.625858 -174.479901 66.341218 175.862891 0.000000 0.000000 0.000000 
4.847057 72.131844 52.014458 0.000000 0.000000 0.000000 -14.943977 -40.268019 -6.943712 -46.683353 -8.990814 29.631369 52.726718 -9.914090 7.357750 3.202589 -12.045495 -32.150069 0.000000 0.000000 0.000000 -15.249080 -38.912762 -7.478150 -22.729965 -3.902179 -44.486146 79.384297 10.633698 -6.766124 -23.552413 -5.592722 17.243911 0.000000 0.000000 0.000000 -15.456301 -38.110451 -6.455319 -1.044812 -2.081780 -1.207554 22.975438 6.093332 -7.363463 0.514381 1.366900 -0.587908 0.000000 0.000000 0.000000 -0.019207 0.952556 -0.812082 3.905372 2.858024 -1.307746 0.000000 0.000000 0.000000 0.260666 1.092956 -0.768580 1.880003 1.366238 -8.266617 -57.766516 3.590129 -44.499389 -176.493755 -70.128250 -176.924699 0.000000 0.000000 0.000000 -0.216158 1.144727 -0.872111 0.905173 13.933788 -4.428436 -47.238323 24.640170 83.144740 -173.350215 67.705452 175.029608 0.000000 0.000000 0.000000 
3.855265 73.560432 48.865986 0.000000 0.000000 0.000000 -13.163045 -39.658291 -5.525947 -45.469689 -7.318943 28.890361 47.564993 -8.888413 6.675417 4.251757 -9.839364 -30.816167 0.000000 0.000000 0.000000 -13.645280 -38.233685 -6.070381 -20.187519 -7.022172 -42.032967 75.588460 9.684645 -5.531224 -30.973050 -9.436852 17.894887 0.000000 0.000000 0.000000 -13.858408 -37.824952 -5.016327 -0.824278 -2.439294 -1.033348 21.324423 7.008449 -6.336315 0.774958 1.509994 -1.048091 0.000000 0.000000 0.000000 0.374000 1.140224 -1.267396 3.830559 2.895773 -1.531875 0.000000 0.000000 0.000000 0.544741 1.261633 -1.195972 1.636285 1.823322 -8.040119 -58.160522 3.446423 -44.965632 -177.345575 -70.275215 -177.991082 0.000000 0.000000 0.000000 0.303197 1.335541 -1.384612 0.550264 13.880479 -5.511663 -48.273236 23.936082 82.575771 -172.811190 68.286981 174.572600 0.000000 0.000000 0.000000 
3.011718 75.179001 45.616444 0.000000 0.000000 0.000000 -10.955428 -38.560567 -4.149645 -45.997400 -5.697934 27.883539 46.699366 -8.219541 5.906251 3.098182 -8.251953 -29.672941 0.000000 0.000000 0.000000 -11.592556 -37.278804 -4.634050 -19.680545 -9.710551 -39.695755 72.083781 8.245124 -3.688689 -34.764635 -12.461339 17.771831 0.000000 0.000000 0.000000 -11.627513 -37.151947 -3.776227 -0.909796 -2.341468 -1.202416 20.359800 7.411445 -5.675707 0.985669 1.503701 -1.248650 0.000000 0.000000 0.000000 0.595967 1.184323 -1.475277 3.657046 2.919616 -1.752703 0.000000 0.000000 0.000000 0.790953 1.267150 -1.358270 1.413373 1.948727 -7.909672 -59.487676 2.640647 -45.331440 -178.661097 -70.792377 -179.460721 0.000000 0.000000 0.000000 0.692165 1.382339 -1.592169 0.247698 13.468232 -6.644887 -49.820506 23.018007 82.346099 -173.235276 68.303825 174.647746 0.000000 0.000000 0.000000 
2.395930 76.949554 42.026070 0.000000 0.000000 0.000000 -8.656084 -37.381980 -2.999757 -47.654851 -3.892549 27.040343 49.977437 -8.373599 4.878174 0.036120 -7.892500 -29.524797 0.000000 0.000000 0.000000 -9.385941 -36.464655 -3.449117 -21.596932 -11.864897 -37.680952 69.332881 6.697962 -1.285356 -34.060606 -14.100706 18.222301 0.000000 0.000000 0.000000 -8.961732 -36.684768 -2.804864 -0.983336 -2.055163 -1.650445 19.970204 7.354750 -5.384666 1.109549 1.403377 -1.155345 0.000000 0.000000 0.000000 0.671961 1.122381 -1.400836 3.418081 2.938115 -1.955935 0.000000 0.000000 0.000000 0.925579 1.170078 -1.207743 1.235391 1.798694 -7.883148 -61.350897 1.491484 -45.656406 179.776098 -71.939268 178.853817 0.000000 0.000000 0.000000 0.948448 1.325572 -1.479592 -0.008726 12.930127 -7.471947 -51.436973 22.233973 82.411690 -174.158882 68.095702 174.989706 0.000000 0.000000 0.000000 
1.996502 78.884132 38.147133 0.000000 0.000000 0.000000 -6.364249 -36.901784 -2.158757 -49.048282 -1.814798 26.439614 55.326308 -9.196399 3.739196 -3.251630 -8.549344 -30.048205 0.000000 0.000000 0.000000 -7.052339 -36.353576 -2.587835 -25.573171 -13.260455 -35.684484 67.272200 5.462554 1.191692 -29.771282 -14.027948 19.850668 0.000000 0.000000 0.000000 -6.211098 -36.752650 -2.101295 -1.044949 -1.598942 -1.955375 19.872292 6.992163 -5.414475 1.198685 1.292542 -0.843679 0.000000 0.000000 0.000000 0.618904 1.029695 -1.076526 3.164287 2.949022 -2.124747 0.000000 0.000000 0.000000 0.928837 1.055979 -0.807832 1.098976 1.495312 -7.922815 -63.601356 0.399289 -45.851408 178.153395 -73.379229 177.133757 0.000000 0.000000 0.000000 1.014635 1.224559 -1.124345 -0.147305 12.596573 -7.757810 -52.737516 21.854901 82.549974 -175.127731 67.774854 175.347034 0.000000 0.000000 0.000000 
1.792437 80.825165 34.197205 0.000000 0.000000 0.000000 -4.236868 -37.571511 -1.670228 -48.756257 0.587262 25.621117 60.183741 -10.199440 2.825804 -5.823152 -9.454023 -30.210692 0.000000 0.000000 0.000000 -4.844882 -37.477583 -2.141914 -29.988410 -13.951496 -33.193913 64.878294 4.470327 3.332090 -23.357169 -12.355830 22.246865 0.000000 0.000000 0.000000 -3.714328 -37.826366 -1.624243 -1.209557 -1.446398 -1.864316 19.707285 6.531071 -5.637219 1.221165 1.226369 -0.437497 0.000000 0.000000 0.000000 0.461008 0.938206 -0.633232 2.935103 2.957839 -2.238404 0.000000 0.000000 0.000000 0.822185 0.960483 -0.309336 0.978105 1.133586 -7.933363 -66.009045 -0.326628 -45.697644 176.920068 -74.240441 175.797472 0.000000 0.000000 0.000000 0.935283 1.147468 -0.667058 -0.175095 12.517393 -7.669577 -53.598888 22.030321 82.698441 -175.911795 67.297840 175.560778 0.000000 0.000000 0.000000 
1.668085 82.678017 30.341095 0.000000 0.000000 0.000000 -2.452317 -39.877759 -1.498861 -45.857842 2.952997 24.001761 62.730097 -10.686911 2.473498 -8.751141 -9.467985 -28.561527 0.000000 0.000000 0.000000 -2.868116 -39.878299 -1.992801 -33.379773 -14.322300 -30.196738 61.711429 3.216548 4.724494 -17.556829 -10.186549 23.897953 0.000000 0.000000 0.000000 -1.724510 -40.032705 -1.376670 -1.284739 -1.450134 -1.444033 19.228355 6.162450 -5.880147 1.167915 1.209950 -0.068700 0.000000 0.000000 0.000000 0.248272 0.897639 -0.215733 2.766370 2.964123 -2.272479 0.000000 0.000000 0.000000 0.646546 0.906123 0.109643 0.874337 0.826780 -7.754812 -68.282111 -0.758310 -45.189443 176.470013 -74.087280 175.245264 0.000000 0.000000 0.000000 0.817754 1.113515 -0.262953 -0.158066 12.582509 -7.377306 -54.224964 22.569646 83.008833 -176.366208 66.748884 175.650609 0.000000 0.000000 0.000000 
1.598353 84.312523 26.867861 0.000000 0.000000 0.000000 -1.086851 -43.428265 -1.581217 -40.785761 4.841536 21.566293 62.715043 -10.338334 2.616785 -12.075908 -8.277581 -24.597366 0.000000 0.000000 0.000000 -1.341881 -43.191500 -2.073778 -35.267794 -14.446168 -27.437947 58.853035 1.447474 5.192561 -13.850768 -8.735627 23.745315 0.000000 0.000000 0.000000 -0.488292 -42.941160 -1.382268 -1.553416 -1.371448 -0.744101 18.436514 5.944093 -6.035940 1.084941 1.212173 0.171924 0.000000 0.000000 0.000000 0.000599 0.886335 0.072909 2.670746 2.969931 -2.228313 0.000000 0.000000 0.000000 0.484081 0.863971 0.355370 0.785501 0.593718 -7.470013 -70.322569 -1.122270 -44.562036 176.676052 -73.404890 175.397386 0.000000 0.000000 0.000000 0.674765 1.106336 0.001303 -0.101816 12.657532 -7.062796 -55.002595 23.088058 83.596543 -176.677268 66.299752 175.679118 0.000000 0.000000 0.000000 
1.546203 85.419052 24.013481 0.000000 0.000000 0.000000 -0.341393 -47.111513 -1.863578 -35.312385 6.233849 18.992263 61.425817 -9.187512 2.954084 -16.064292 -6.122193 -18.757902 0.000000 0.000000 0.000000 -0.470295 -46.618889 -2.357055 -35.781268 -14.242007 -25.825177 57.401859 -0.634421 4.829056 -11.743622 -8.304526 22.083970 0.000000 0.000000 0.000000 0.050339 -45.965517 -1.574008 -1.897029 -1.345356 -0.362911 17.475580 5.908459 -6.047406 0.950569 1.200973 0.282745 0.000000 0.000000 0.000000 -0.228780 0.867387 0.207830 2.634026 2.979052 -2.116880 0.000000 0.000000 0.000000 0.359770 0.819657 0.423467 0.733125 0.446700 -7.198134 -72.056925 -1.578048 -44.103133 177.179096 -72.980127 175.946465 0.000000 0.000000 0.000000 0.550419 1.092812 0.120567 -0.020816 12.563536 -6.850744 -55.993300 23.300017 84.327489 -176.910178 66.172471 175.662179 0.000000 0.000000 0.000000 
